<svg xmlns="http://www.w3.org/2000/svg" width="145" height="26" fill="none" viewBox="0 0 145 26"><path fill="#0a84ff" fill-rule="evenodd" d="m4.027 13-2.694-1.584 1.985-3.499L6.013 9.5l.002-3.166h3.97L9.987 9.5l2.694-1.582 1.986 3.499L11.973 13l2.694 1.584-1.985 3.499L9.987 16.5l-.002 3.166h-3.97L6.013 16.5l-2.695 1.582-1.985-3.499z" clip-rule="evenodd"/><path fill="#0a84ff" d="M28.266 18V7.578H24.54V5.994h9.234v1.584h-3.708V18zm4.902-4.356c0-2.52 1.818-4.554 4.356-4.554 2.61 0 4.23 2.034 4.23 4.698v.396h-6.876c.126 1.476 1.206 2.7 2.952 2.7.918 0 1.926-.36 2.574-1.026l.756 1.062c-.864.846-2.088 1.296-3.492 1.296-2.592 0-4.5-1.836-4.5-4.572m4.356-3.222c-1.746 0-2.574 1.404-2.664 2.592h5.31c-.036-1.152-.81-2.592-2.646-2.592m5.796 3.222c0-2.61 1.8-4.554 4.428-4.554 1.638 0 2.628.684 3.258 1.53l-1.08.99c-.522-.738-1.224-1.08-2.106-1.08-1.71 0-2.808 1.314-2.808 3.114s1.098 3.132 2.808 3.132q1.323 0 2.106-1.08l1.08.99c-.63.846-1.62 1.53-3.258 1.53-2.628 0-4.428-1.962-4.428-4.572M58.738 18v-5.598c0-1.44-.738-1.872-1.854-1.872-1.008 0-1.926.612-2.394 1.26V18h-1.62V5.994h1.62v4.536c.576-.702 1.746-1.44 3.078-1.44 1.854 0 2.79.936 2.79 2.772V18zm9.04 0V5.994h5.059c2.466 0 3.834 1.692 3.834 3.69s-1.386 3.69-3.834 3.69h-3.258V18zm7.039-8.316c0-1.26-.918-2.106-2.214-2.106h-3.024v4.212h3.024c1.296 0 2.214-.846 2.214-2.106m4.538-1.836c-.558 0-1.044-.45-1.044-1.026s.486-1.044 1.044-1.044c.576 0 1.044.468 1.044 1.044a1.03 1.03 0 0 1-1.044 1.026M78.563 18V9.306h1.62V18zm8.133.216c-2.7 0-4.392-2.052-4.392-4.572 0-2.502 1.692-4.554 4.392-4.554 2.718 0 4.392 2.052 4.392 4.554 0 2.52-1.674 4.572-4.392 4.572m0-1.44c1.746 0 2.7-1.476 2.7-3.132 0-1.638-.954-3.114-2.7-3.114-1.728 0-2.7 1.476-2.7 3.114 0 1.656.972 3.132 2.7 3.132M99.093 18v-5.562c0-1.44-.738-1.908-1.854-1.908-1.008 0-1.926.612-2.394 1.26V18h-1.62V9.306h1.62v1.224c.576-.702 1.728-1.44 3.078-1.44 1.836 0 2.79.972 2.79 2.808V18zm3.727-4.356c0-2.52 1.818-4.554 4.356-4.554 2.61 0 4.23 2.034 4.23 4.698v.396h-6.876c.126 1.476 1.206 2.7 2.952 2.7.918 0 1.926-.36 2.574-1.026l.756 1.062c-.864.846-2.088 1.296-3.492 1.296-2.592 0-4.5-1.836-4.5-4.572m4.356-3.222c-1.746 0-2.574 1.404-2.664 2.592h5.31c-.036-1.152-.81-2.592-2.646-2.592m5.796 3.222c0-2.52 1.818-4.554 4.356-4.554 2.61 0 4.23 2.034 4.23 4.698v.396h-6.876c.126 1.476 1.206 2.7 2.952 2.7.918 0 1.926-.36 2.574-1.026l.756 1.062c-.864.846-2.088 1.296-3.492 1.296-2.592 0-4.5-1.836-4.5-4.572m4.356-3.222c-1.746 0-2.574 1.404-2.664 2.592h5.31c-.036-1.152-.81-2.592-2.646-2.592M123.664 18V9.306h1.62v1.332c.666-.864 1.692-1.53 2.844-1.53v1.638a2.6 2.6 0 0 0-.558-.054c-.81 0-1.908.612-2.286 1.26V18zm5.406-1.134.774-1.188c.594.648 1.746 1.242 2.916 1.242 1.224 0 1.872-.504 1.872-1.242 0-.864-.99-1.152-2.106-1.404-1.476-.342-3.204-.738-3.204-2.61 0-1.386 1.188-2.574 3.312-2.574 1.494 0 2.574.54 3.312 1.242l-.72 1.134c-.504-.612-1.476-1.062-2.574-1.062s-1.782.432-1.782 1.134c0 .756.936 1.008 2.016 1.26 1.512.342 3.312.756 3.312 2.754 0 1.494-1.224 2.664-3.51 2.664-1.458 0-2.736-.45-3.618-1.35"/></svg>