<svg width="16" height="16" viewBox="0 0 16 16" fill="none" xmlns="http://www.w3.org/2000/svg">
<g clip-path="url(#clip0_5_473)">
<path d="M9.88671 9.88668C9.51365 10.2593 9.03849 10.513 8.52129 10.6157C8.00409 10.7183 7.46806 10.6653 6.98096 10.4634C6.49387 10.2615 6.07757 9.91969 5.78468 9.48122C5.49179 9.04275 5.33547 8.5273 5.33547 8.00001C5.33547 7.47272 5.49179 6.95726 5.78468 6.5188C6.07757 6.08033 6.49387 5.73854 6.98096 5.53662C7.46806 5.33469 8.00409 5.28171 8.52129 5.38437C9.03849 5.48702 9.51365 5.7407 9.88671 6.11334M14.6667 8.00001C14.6667 11.6819 11.6819 14.6667 8.00004 14.6667C4.31814 14.6667 1.33337 11.6819 1.33337 8.00001C1.33337 4.31811 4.31814 1.33334 8.00004 1.33334C11.6819 1.33334 14.6667 4.31811 14.6667 8.00001Z" stroke="#1C1C1E" stroke-width="1.33333" stroke-linecap="round" stroke-linejoin="round"/>
</g>
<defs>
<clipPath id="clip0_5_473">
<rect width="16" height="16" fill="white"/>
</clipPath>
</defs>
</svg>
