<svg xmlns="http://www.w3.org/2000/svg" width="16" height="16" fill="none" viewBox="0 0 16 16"><g clip-path="url(#a)"><path stroke="currentColor" stroke-linecap="round" stroke-linejoin="round" stroke-width="1.333" d="M14.667 8A6.667 6.667 0 0 1 8 14.667M14.667 8A6.667 6.667 0 0 0 8 1.333M14.667 8H1.333M8 14.667A6.667 6.667 0 0 1 1.333 8M8 14.667A9.667 9.667 0 0 1 8 1.333m0 13.334A9.667 9.667 0 0 0 8 1.333M1.333 8A6.667 6.667 0 0 1 8 1.333"/></g><defs><clipPath id="a"><path fill="#fff" d="M0 0h16v16H0z"/></clipPath></defs></svg>