<svg width="16" height="16" viewBox="0 0 16 16" fill="none" xmlns="http://www.w3.org/2000/svg">
<g clip-path="url(#clip0_5_472)">
<path d="M14.6667 8.00001C14.6667 11.6819 11.6819 14.6667 8.00004 14.6667M14.6667 8.00001C14.6667 4.31811 11.6819 1.33334 8.00004 1.33334M14.6667 8.00001H1.33337M8.00004 14.6667C4.31814 14.6667 1.33337 11.6819 1.33337 8.00001M8.00004 14.6667C6.2882 12.8692 5.33337 10.4822 5.33337 8.00001C5.33337 5.51784 6.2882 3.13078 8.00004 1.33334M8.00004 14.6667C9.71188 12.8692 10.6667 10.4822 10.6667 8.00001C10.6667 5.51784 9.71188 3.13078 8.00004 1.33334M1.33337 8.00001C1.33337 4.31811 4.31814 1.33334 8.00004 1.33334" stroke="currentColor" stroke-width="1.33333" stroke-linecap="round" stroke-linejoin="round"/>
</g>
<defs>
<clipPath id="clip0_5_472">
<rect width="16" height="16" fill="white"/>
</clipPath>
</defs>
</svg>
